<svg width="246" height="19" viewBox="0 0 246 19" fill="none" xmlns="http://www.w3.org/2000/svg">
<path d="M16.793 13.0781C16.793 13.6797 16.7148 14.2227 16.5586 14.707C16.4102 15.1836 16.2109 15.6055 15.9609 15.9727C15.7109 16.3398 15.418 16.6523 15.082 16.9102C14.7461 17.168 14.3984 17.3789 14.0391 17.543C13.6797 17.707 13.3125 17.8281 12.9375 17.9062C12.5703 17.9844 12.2227 18.0234 11.8945 18.0234H0.140625V14.9766H11.8945C12.4805 14.9766 12.9336 14.8047 13.2539 14.4609C13.582 14.1172 13.7461 13.6562 13.7461 13.0781C13.7461 12.7969 13.7031 12.5391 13.6172 12.3047C13.5312 12.0703 13.4062 11.8672 13.2422 11.6953C13.0859 11.5234 12.8906 11.3906 12.6562 11.2969C12.4297 11.2031 12.1758 11.1562 11.8945 11.1562H4.88672C4.39453 11.1562 3.86328 11.0703 3.29297 10.8984C2.72266 10.7188 2.19141 10.4336 1.69922 10.043C1.21484 9.65234 0.808594 9.14062 0.480469 8.50781C0.160156 7.875 0 7.10156 0 6.1875C0 5.27344 0.160156 4.50391 0.480469 3.87891C0.808594 3.24609 1.21484 2.73438 1.69922 2.34375C2.19141 1.94531 2.72266 1.66016 3.29297 1.48828C3.86328 1.30859 4.39453 1.21875 4.88672 1.21875H15.2578V4.26562H4.88672C4.30859 4.26562 3.85547 4.44141 3.52734 4.79297C3.20703 5.14453 3.04688 5.60938 3.04688 6.1875C3.04688 6.77344 3.20703 7.23828 3.52734 7.58203C3.85547 7.91797 4.30859 8.08594 4.88672 8.08594H11.8945H11.918C12.2461 8.09375 12.5938 8.14062 12.9609 8.22656C13.3281 8.30469 13.6914 8.42969 14.0508 8.60156C14.418 8.77344 14.7656 8.99219 15.0938 9.25781C15.4219 9.51562 15.7109 9.82812 15.9609 10.1953C16.2188 10.5625 16.4219 10.9844 16.5703 11.4609C16.7188 11.9375 16.793 12.4766 16.793 13.0781ZM33.8672 18.0234H29.4727L23.332 12.0938C22.9883 11.7812 22.8281 11.3906 22.8516 10.9219C22.8672 10.7031 22.9219 10.5 23.0156 10.3125C23.1172 10.1172 23.2539 9.95312 23.4258 9.82031L28.9922 5.33203H33.8672L26.6953 11.1094L33.8672 18.0234ZM22.0781 18.0234H19.0312V0H22.0781V18.0234ZM38.6719 2.75391H35.625V0H38.6719V2.75391ZM38.6719 18.0234H35.625V5.35547H38.6719V18.0234ZM55.6406 18.0234H52.5938V10.9922C52.5938 10.5938 52.5234 10.2383 52.3828 9.92578C52.25 9.60547 52.0664 9.33203 51.832 9.10547C51.5977 8.87891 51.3203 8.70703 51 8.58984C50.6875 8.46484 50.3477 8.40234 49.9805 8.40234H44.6484V18.0234H41.6016V6.86719C41.6016 6.65625 41.6406 6.46094 41.7188 6.28125C41.7969 6.09375 41.9062 5.93359 42.0469 5.80078C42.1875 5.66016 42.3516 5.55078 42.5391 5.47266C42.7266 5.39453 42.9258 5.35547 43.1367 5.35547H50.0039C50.3867 5.35547 50.7891 5.39844 51.2109 5.48438C51.6406 5.57031 52.0625 5.71094 52.4766 5.90625C52.8984 6.09375 53.2969 6.33594 53.6719 6.63281C54.0547 6.92188 54.3906 7.27734 54.6797 7.69922C54.9766 8.11328 55.2109 8.59375 55.3828 9.14062C55.5547 9.6875 55.6406 10.3047 55.6406 10.9922V18.0234ZM70.5586 13.7461C70.5586 14.2695 70.4922 14.7422 70.3594 15.1641C70.2266 15.5781 70.0508 15.9453 69.832 16.2656C69.6133 16.5781 69.3594 16.8477 69.0703 17.0742C68.7812 17.293 68.4766 17.4727 68.1562 17.6133C67.8438 17.7539 67.5234 17.8594 67.1953 17.9297C66.875 17.9922 66.5703 18.0234 66.2812 18.0234H58.0312V14.9766H66.2578C66.6719 14.9766 66.9844 14.8711 67.1953 14.6602C67.4062 14.4492 67.5117 14.1445 67.5117 13.7461C67.4727 12.9336 67.0625 12.5273 66.2812 12.5273H61.5586C60.8867 12.5273 60.3164 12.4102 59.8477 12.1758C59.3789 11.9414 58.9961 11.6484 58.6992 11.2969C58.4102 10.9453 58.1992 10.5664 58.0664 10.1602C57.9414 9.75391 57.8789 9.375 57.8789 9.02344C57.8789 8.34375 58 7.77344 58.2422 7.3125C58.4844 6.84375 58.7891 6.46484 59.1562 6.17578C59.5234 5.88672 59.9219 5.67969 60.3516 5.55469C60.7812 5.42188 61.1836 5.35547 61.5586 5.35547H69.0469V8.40234H61.582C61.4258 8.40234 61.3008 8.42188 61.207 8.46094C61.1211 8.49219 61.0547 8.53906 61.0078 8.60156C60.9688 8.65625 60.9453 8.71875 60.9375 8.78906C60.9297 8.85156 60.9258 8.91406 60.9258 8.97656C60.9336 9.10156 60.957 9.19922 60.9961 9.26953C61.0352 9.33984 61.082 9.39062 61.1367 9.42188C61.1992 9.45312 61.2656 9.47266 61.3359 9.48047C61.4141 9.48047 61.4883 9.48047 61.5586 9.48047H66.2812C67.0625 9.48047 67.7266 9.62109 68.2734 9.90234C68.8203 10.1836 69.2617 10.5391 69.5977 10.9688C69.9336 11.3906 70.1758 11.8516 70.3242 12.3516C70.4805 12.8516 70.5586 13.3164 70.5586 13.7461Z" fill="#E60000"/>
<path d="M97.5938 8.25C97.5938 8.94531 97.5078 9.56641 97.3359 10.1133C97.1641 10.6602 96.9297 11.1445 96.6328 11.5664C96.3438 11.9805 96.0078 12.3359 95.625 12.6328C95.2422 12.9297 94.8398 13.1719 94.418 13.3594C94.0039 13.5469 93.582 13.6836 93.1523 13.7695C92.7305 13.8555 92.332 13.8984 91.957 13.8984H85.0664V10.8516H91.957C92.3477 10.8203 92.6992 10.7422 93.0117 10.6172C93.332 10.4844 93.6055 10.3086 93.832 10.0898C94.0586 9.87109 94.2344 9.60938 94.3594 9.30469C94.4844 8.99219 94.5469 8.64062 94.5469 8.25V6.86719C94.5078 6.48438 94.4258 6.13281 94.3008 5.8125C94.1758 5.49219 94.0039 5.21875 93.7852 4.99219C93.5742 4.76562 93.3164 4.58984 93.0117 4.46484C92.707 4.33203 92.3555 4.26562 91.957 4.26562H85.0898C84.6836 4.26562 84.375 4.37109 84.1641 4.58203C83.9531 4.79297 83.8477 5.09766 83.8477 5.49609V18.0234H80.8008V5.49609C80.8008 4.71484 80.9414 4.05078 81.2227 3.50391C81.5117 2.95703 81.8672 2.51562 82.2891 2.17969C82.7188 1.84375 83.1836 1.60156 83.6836 1.45312C84.1836 1.29688 84.6445 1.21875 85.0664 1.21875H91.957C92.6445 1.21875 93.2617 1.30859 93.8086 1.48828C94.3555 1.66016 94.8359 1.89453 95.25 2.19141C95.6719 2.48047 96.0273 2.81641 96.3164 3.19922C96.6133 3.58203 96.8555 3.98438 97.043 4.40625C97.2383 4.82031 97.3789 5.24219 97.4648 5.67188C97.5508 6.09375 97.5938 6.49219 97.5938 6.86719V8.25ZM113.648 13.7461C113.648 14.2695 113.582 14.7422 113.449 15.1641C113.316 15.5781 113.141 15.9453 112.922 16.2656C112.703 16.5781 112.449 16.8477 112.16 17.0742C111.871 17.293 111.566 17.4727 111.246 17.6133C110.934 17.7539 110.613 17.8594 110.285 17.9297C109.965 17.9922 109.66 18.0234 109.371 18.0234H103.875C103.453 18.0234 102.992 17.9492 102.492 17.8008C101.992 17.6523 101.527 17.4102 101.098 17.0742C100.676 16.7305 100.32 16.2891 100.031 15.75C99.75 15.2031 99.6094 14.5352 99.6094 13.7461V9.62109C99.6094 8.83984 99.75 8.17969 100.031 7.64062C100.32 7.09375 100.676 6.65234 101.098 6.31641C101.527 5.97266 101.992 5.72656 102.492 5.57812C102.992 5.42969 103.453 5.35547 103.875 5.35547H109.371C110.152 5.35547 110.816 5.49609 111.363 5.77734C111.91 6.05859 112.352 6.41406 112.688 6.84375C113.023 7.26562 113.266 7.72656 113.414 8.22656C113.57 8.72656 113.648 9.19141 113.648 9.62109V13.7461ZM110.602 9.64453C110.602 9.22266 110.496 8.91016 110.285 8.70703C110.074 8.50391 109.77 8.40234 109.371 8.40234H103.898C103.492 8.40234 103.184 8.50781 102.973 8.71875C102.762 8.92188 102.656 9.22266 102.656 9.62109V13.7461C102.656 14.1445 102.762 14.4492 102.973 14.6602C103.184 14.8711 103.492 14.9766 103.898 14.9766H109.371C109.785 14.9766 110.094 14.8711 110.297 14.6602C110.5 14.4492 110.602 14.1445 110.602 13.7461V9.64453ZM128.52 18.0234H120.258C119.836 18.0234 119.375 17.9492 118.875 17.8008C118.375 17.6523 117.91 17.4102 117.48 17.0742C117.059 16.7305 116.703 16.2891 116.414 15.75C116.133 15.2031 115.992 14.5352 115.992 13.7461V9.62109C115.992 9.33203 116.023 9.02734 116.086 8.70703C116.156 8.38672 116.262 8.07031 116.402 7.75781C116.543 7.4375 116.723 7.13281 116.941 6.84375C117.168 6.55469 117.438 6.30078 117.75 6.08203C118.07 5.86328 118.438 5.6875 118.852 5.55469C119.266 5.42188 119.734 5.35547 120.258 5.35547H128.52V8.40234H120.258C119.859 8.40234 119.555 8.50391 119.344 8.70703C119.141 8.91016 119.039 9.22266 119.039 9.64453V13.7461C119.039 14.1445 119.145 14.4492 119.355 14.6602C119.566 14.8711 119.875 14.9766 120.281 14.9766H128.52V18.0234ZM145.922 18.0234H141.527L135.387 12.0938C135.043 11.7812 134.883 11.3906 134.906 10.9219C134.922 10.7031 134.977 10.5 135.07 10.3125C135.172 10.1172 135.309 9.95312 135.48 9.82031L141.047 5.33203H145.922L138.75 11.1094L145.922 18.0234ZM134.133 18.0234H131.086V0H134.133V18.0234ZM160.863 9.55078C160.863 9.97266 160.789 10.4297 160.641 10.9219C160.492 11.4062 160.25 11.8594 159.914 12.2812C159.586 12.6953 159.152 13.043 158.613 13.3242C158.082 13.6055 157.434 13.7461 156.668 13.7461H151.172V10.8516H156.668C157.082 10.8516 157.402 10.7266 157.629 10.4766C157.855 10.2188 157.969 9.90234 157.969 9.52734C157.969 9.12891 157.84 8.81641 157.582 8.58984C157.332 8.36328 157.027 8.25 156.668 8.25H151.172C150.758 8.25 150.438 8.37891 150.211 8.63672C149.984 8.88672 149.871 9.19922 149.871 9.57422V13.8281C149.871 14.2344 149.996 14.5508 150.246 14.7773C150.504 15.0039 150.82 15.1172 151.195 15.1172H156.668V18.0234H151.172C150.75 18.0234 150.293 17.9492 149.801 17.8008C149.316 17.6523 148.863 17.4141 148.441 17.0859C148.027 16.75 147.68 16.3164 147.398 15.7852C147.117 15.2461 146.977 14.5938 146.977 13.8281V9.55078C146.977 9.12891 147.051 8.67578 147.199 8.19141C147.348 7.69922 147.586 7.24609 147.914 6.83203C148.25 6.41016 148.684 6.05859 149.215 5.77734C149.754 5.49609 150.406 5.35547 151.172 5.35547H156.668C157.09 5.35547 157.543 5.42969 158.027 5.57812C158.52 5.72656 158.973 5.96875 159.387 6.30469C159.809 6.63281 160.16 7.06641 160.441 7.60547C160.723 8.13672 160.863 8.78516 160.863 9.55078ZM174.434 8.40234H169.113V18.0234H166.031V8.40234H162.07V5.35547H166.031V1.21875H169.113V5.35547H174.434V8.40234Z" fill="#FFCB06"/>
<path d="M200.977 16.4883C200.977 16.707 200.938 16.9102 200.859 17.0977C200.781 17.2852 200.672 17.4492 200.531 17.5898C200.398 17.7227 200.238 17.8281 200.051 17.9062C199.863 17.9844 199.66 18.0234 199.441 18.0234H188.449C188.168 18.0234 187.863 17.9922 187.535 17.9297C187.215 17.8594 186.895 17.7539 186.574 17.6133C186.262 17.4727 185.961 17.293 185.672 17.0742C185.383 16.8477 185.125 16.5781 184.898 16.2656C184.68 15.9453 184.504 15.5781 184.371 15.1641C184.238 14.7422 184.172 14.2695 184.172 13.7461V5.49609C184.172 5.21484 184.203 4.91406 184.266 4.59375C184.336 4.26562 184.441 3.94531 184.582 3.63281C184.723 3.3125 184.906 3.00781 185.133 2.71875C185.359 2.42969 185.629 2.17578 185.941 1.95703C186.262 1.73047 186.629 1.55078 187.043 1.41797C187.457 1.28516 187.926 1.21875 188.449 1.21875H200.836V4.26562H188.449C188.051 4.26562 187.746 4.37109 187.535 4.58203C187.324 4.79297 187.219 5.10547 187.219 5.51953V13.7461C187.219 14.1367 187.324 14.4414 187.535 14.6602C187.754 14.8711 188.059 14.9766 188.449 14.9766H197.93V11.1562H189.82V8.08594H199.441C199.66 8.08594 199.863 8.12891 200.051 8.21484C200.238 8.29297 200.398 8.40234 200.531 8.54297C200.672 8.68359 200.781 8.84766 200.859 9.03516C200.938 9.21484 200.977 9.41016 200.977 9.62109V16.4883ZM214.898 8.40234H208.043C207.629 8.40234 207.316 8.50781 207.105 8.71875C206.895 8.92188 206.789 9.22266 206.789 9.62109V18.0234H203.742V9.62109C203.742 9.09766 203.809 8.62891 203.941 8.21484C204.074 7.80078 204.25 7.4375 204.469 7.125C204.695 6.80469 204.953 6.53516 205.242 6.31641C205.531 6.08984 205.832 5.90625 206.145 5.76562C206.465 5.625 206.785 5.52344 207.105 5.46094C207.434 5.39062 207.738 5.35547 208.02 5.35547H214.898V8.40234ZM229.008 13.8281C229.008 14.25 228.934 14.707 228.785 15.1992C228.637 15.6836 228.395 16.1367 228.059 16.5586C227.73 16.9727 227.297 17.3203 226.758 17.6016C226.227 17.8828 225.578 18.0234 224.812 18.0234H219.316C218.895 18.0234 218.438 17.9492 217.945 17.8008C217.461 17.6523 217.008 17.4141 216.586 17.0859C216.172 16.75 215.824 16.3164 215.543 15.7852C215.262 15.2461 215.121 14.5938 215.121 13.8281C215.121 13.4062 215.195 12.9492 215.344 12.457C215.492 11.9648 215.73 11.5117 216.059 11.0977C216.395 10.6758 216.828 10.3242 217.359 10.043C217.898 9.76172 218.551 9.62109 219.316 9.62109H224.812V12.5273H219.316C218.902 12.5273 218.582 12.6562 218.355 12.9141C218.129 13.1641 218.016 13.4766 218.016 13.8516C218.016 14.25 218.145 14.5625 218.402 14.7891C218.668 15.0078 218.98 15.1172 219.34 15.1172H224.812C225.227 15.1172 225.547 14.9922 225.773 14.7422C226 14.4922 226.113 14.1797 226.113 13.8047V9.55078C226.113 9.15234 225.988 8.83594 225.738 8.60156C225.496 8.36719 225.188 8.25 224.812 8.25H218.121V5.35547H224.812C225.234 5.35547 225.688 5.42969 226.172 5.57812C226.664 5.72656 227.117 5.96875 227.531 6.30469C227.953 6.63281 228.305 7.06641 228.586 7.60547C228.867 8.13672 229.008 8.78516 229.008 9.55078V13.8281ZM245.461 16.4883C245.461 16.707 245.422 16.9102 245.344 17.0977C245.266 17.2852 245.156 17.4492 245.016 17.5898C244.883 17.7227 244.723 17.8281 244.535 17.9062C244.355 17.9844 244.16 18.0234 243.949 18.0234H237.059C236.684 18.0234 236.281 17.9805 235.852 17.8945C235.43 17.8086 235.012 17.6719 234.598 17.4844C234.184 17.2891 233.781 17.0469 233.391 16.7578C233.008 16.4609 232.672 16.1055 232.383 15.6914C232.094 15.2695 231.859 14.7852 231.68 14.2383C231.508 13.6914 231.422 13.0742 231.422 12.3867V5.35547H234.469V12.3867C234.469 12.7852 234.535 13.1445 234.668 13.4648C234.809 13.7773 234.996 14.0469 235.23 14.2734C235.465 14.5 235.738 14.6758 236.051 14.8008C236.371 14.918 236.715 14.9766 237.082 14.9766H242.414V5.35547H245.461V16.4883Z" fill="#D6D6E7"/>
</svg>
